<?xml version="1.0" encoding="UTF-8"?>
<svg width="1000px" height="714px" viewBox="0 0 1000 714" version="1.1" xmlns="http://www.w3.org/2000/svg" xmlns:xlink="http://www.w3.org/1999/xlink">
    <!-- Generator: Sketch 51.3 (57544) - http://www.bohemiancoding.com/sketch -->
    <title>Discord_Inverted_Icon</title>
    <desc>Created with Sketch.</desc>
    <defs></defs>
    <g id="Page-1" stroke="none" stroke-width="1" fill="none" fill-rule="evenodd">
        <g id="Discord_Inverted_Icon" fill="#FFFFFF" fill-rule="nonzero">
            <path d="M361.9857,0.00138389 C348.73055,0.05478389 239.07459,3.1670339 123.39327,89.124664 C123.39327,89.124664 0,311.06297 0,584.4136 C0,584.4136 71.978249,707.80568 261.35281,713.80398 C261.35281,713.80398 293.05792,676.10028 318.76487,643.53816 C209.93876,610.97599 168.80785,543.28361 168.80785,543.28361 C168.80785,543.28361 177.37865,549.28087 192.80283,557.84987 C193.65972,557.84987 194.51405,558.70545 196.22785,559.56237 C198.79854,561.27614 201.37005,562.13318 203.94075,563.84696 C225.36321,575.84354 246.78498,585.27064 266.49365,592.98277 C301.62648,607.55006 343.6158,620.40228 392.45901,629.82818 C456.72637,641.82478 532.13207,646.10862 614.39433,630.68443 C654.66857,622.97235 695.80227,611.8339 738.64719,593.83902 C768.63861,582.69933 802.05644,566.41988 837.18924,543.28361 C837.18924,543.28361 794.34507,612.69249 682.09138,644.39774 C707.79835,676.10295 738.64719,712.94772 738.64719,712.94772 C928.02173,706.94949 1000,583.55668 1000,584.4136 C1000,311.06297 876.60671,89.124664 876.60671,89.124664 C754.07028,-2.5634661 636.67349,0.00803389 636.67349,0.00803389 L624.67932,13.718014 C770.35209,57.419834 838.04548,121.6888 838.04548,121.6888 C748.92802,73.702484 661.52634,49.707644 580.121,40.281764 C518.42431,33.426574 459.29601,35.142394 407.02524,41.997574 C401.88387,41.997574 397.6004,42.853204 392.45901,43.710074 C362.46757,47.137694 289.6318,57.419604 197.94366,97.693824 C166.23843,111.40419 147.38495,121.6888 147.38495,121.6888 C147.38495,121.6888 217.65063,53.991524 371.89234,10.289694 L363.32318,0.00803389 C363.32318,0.00803389 362.86938,-0.00216611 361.9857,0.00103389 L361.9857,0.00138389 Z M340.18778,316.20414 C389.03098,316.20414 428.44876,358.19083 427.59191,410.4616 C427.59191,462.73244 389.03098,504.7224 340.18778,504.7224 C292.20146,504.7224 252.78365,462.73244 252.78365,410.4616 C252.78365,358.19083 291.34456,316.20414 340.18778,316.20414 Z M652.95556,316.20414 C700.94187,316.20414 740.35969,358.19083 740.35969,410.4616 C740.35969,462.73244 701.7988,504.7224 652.95556,504.7224 C604.96926,504.7224 565.55143,462.73244 565.55143,410.4616 C565.55143,358.19083 604.11234,316.20414 652.95556,316.20414 Z" id="path8"></path>
        </g>
    </g>
</svg>