<?xml version="1.0" encoding="UTF-8"?>
<svg width="1426px" height="972px" viewBox="0 0 1426 972" version="1.1" xmlns="http://www.w3.org/2000/svg" xmlns:xlink="http://www.w3.org/1999/xlink">
    <!-- Generator: Sketch 51.3 (57544) - http://www.bohemiancoding.com/sketch -->
    <title>ZED_Logo_Chris</title>
    <desc>Created with Sketch.</desc>
    <defs>
        <polygon id="path-1" points="0 971.979 1425.603 971.979 1425.603 0 0 0"></polygon>
        <polygon id="path-3" points="0 971.979 1425.603 971.979 1425.603 0 0 0"></polygon>
    </defs>
    <g id="Page-1" stroke="none" stroke-width="1" fill="none" fill-rule="evenodd">
        <g id="ZED_Logo_Chris">
            <path d="M316.4263,338.2289 L0.0003,338.2289 C0.0003,414.4389 75.5113,415.5359 75.5113,415.5359 L291.2573,415.5359 L0.0003,899.1649 C0.0003,971.7799 73.7133,971.9789 73.7133,971.9789 L385.6453,971.9789 C385.6453,899.8699 316.4263,899.1649 316.4263,899.1649 L75.5113,899.1649 L385.6453,415.5359 C385.6453,338.2289 316.4263,338.2289 316.4263,338.2289" id="Fill-1" fill="#FFFFFF" fill-rule="nonzero"></path>
            <path d="M831.4492,338.2289 L590.0852,338.2289 C590.0852,338.2289 519.0692,346.1219 519.0692,415.5359 L906.5092,415.5359 C906.5092,415.5359 902.2622,338.2289 831.4492,338.2289" id="Fill-3" fill="#FFFFFF" fill-rule="nonzero"></path>
            <path d="M590.0854,971.979 L831.4494,971.979 C906.5084,971.979 905.773675,899.165 905.773675,899.165 L519.0694,899.165 C519.0694,971.979 590.0854,971.979 590.0854,971.979" id="Fill-5" fill="#FFFFFF" fill-rule="nonzero"></path>
            <g id="Fill-7-Clipped">
                <mask id="mask-2" fill="white">
                    <use xlink:href="#path-1"></use>
                </mask>
                <g id="path-1"></g>
                <polygon id="Fill-7" fill="#FFFFFF" fill-rule="nonzero" mask="url(#mask-2)" points="519.069 690.615 906.508 690.615 906.508 617.797 519.069 617.797"></polygon>
            </g>
            <g id="Fill-9-Clipped">
                <mask id="mask-4" fill="white">
                    <use xlink:href="#path-3"></use>
                </mask>
                <g id="path-1"></g>
                <path d="M1352.7646,415.5356 L1352.7646,849.2986 C1352.7646,849.2986 1352.0866,898.6726 1308.7226,898.6726 L1151.5536,899.1646 C1151.5536,899.1646 1107.3546,899.1646 1107.3546,848.8956 L1107.6296,447.2826 C1107.6296,447.2826 1107.6296,415.5356 1150.7386,415.5356 L1352.7646,415.5356 Z M1425.5786,899.1646 L1425.5786,0.0006 L1352.7646,0.0006 L1352.7646,338.2286 L1110.0466,338.2286 C1037.9676,338.2286 1037.2386,415.5356 1037.2386,415.5356 L1037.2386,899.1646 C1037.2386,971.8206 1107.3546,971.9786 1107.3546,971.9786 L1353.6656,971.9786 C1429.0066,971.9696 1425.5786,899.1646 1425.5786,899.1646 Z" id="Fill-9" fill="#FFFFFF" fill-rule="nonzero" mask="url(#mask-4)"></path>
            </g>
        </g>
    </g>
</svg>